<svg width="134" height="21" viewBox="0 0 134 21" fill="none" xmlns="http://www.w3.org/2000/svg">
<path d="M106.73 11.2579C106.73 13.2858 106.175 14.8151 105.066 15.8458C103.968 16.8654 102.433 17.3751 100.461 17.3751H97.1172V5.37598H100.814C102.013 5.37598 103.055 5.60005 103.94 6.0482C104.837 6.49635 105.526 7.15737 106.007 8.03125C106.489 8.90514 106.73 9.9807 106.73 11.2579ZM105.133 11.3083C105.133 9.70621 104.736 8.53542 103.94 7.79598C103.156 7.04533 102.041 6.67 100.596 6.67H98.6297V16.0811H100.26C103.509 16.0811 105.133 14.4902 105.133 11.3083Z" fill="#9FA2AC"/>
<path d="M117.023 12.8544C117.023 14.3445 116.642 15.4985 115.88 16.3164C115.129 17.1343 114.11 17.5432 112.821 17.5432C112.026 17.5432 111.315 17.3639 110.687 17.0054C110.071 16.6357 109.584 16.1035 109.225 15.4089C108.867 14.7031 108.687 13.8516 108.687 12.8544C108.687 11.3644 109.057 10.216 109.796 9.40931C110.547 8.60264 111.572 8.19931 112.872 8.19931C113.679 8.19931 114.396 8.38417 115.023 8.75389C115.65 9.11241 116.138 9.63899 116.485 10.3336C116.844 11.017 117.023 11.8573 117.023 12.8544ZM110.217 12.8544C110.217 13.9188 110.424 14.7647 110.838 15.3921C111.264 16.0083 111.936 16.3164 112.855 16.3164C113.763 16.3164 114.429 16.0083 114.855 15.3921C115.281 14.7647 115.494 13.9188 115.494 12.8544C115.494 11.7901 115.281 10.9554 114.855 10.3504C114.429 9.74542 113.757 9.44292 112.838 9.44292C111.92 9.44292 111.253 9.74542 110.838 10.3504C110.424 10.9554 110.217 11.7901 110.217 12.8544Z" fill="#9FA2AC"/>
<path d="M122.98 17.5432C122.173 17.5432 121.462 17.3807 120.846 17.0558C120.229 16.7309 119.742 16.2268 119.383 15.5433C119.036 14.8599 118.863 13.986 118.863 12.9217C118.863 11.8125 119.042 10.9106 119.4 10.216C119.77 9.52135 120.274 9.01158 120.913 8.68667C121.551 8.36176 122.274 8.19931 123.081 8.19931C123.529 8.19931 123.966 8.24973 124.392 8.35056C124.829 8.44019 125.181 8.55223 125.45 8.68667L124.997 9.91348C124.728 9.81264 124.414 9.71741 124.055 9.62778C123.697 9.53815 123.361 9.49334 123.047 9.49334C121.277 9.49334 120.392 10.6305 120.392 12.9049C120.392 13.9916 120.605 14.8263 121.03 15.4089C121.467 15.9803 122.112 16.266 122.963 16.266C123.445 16.266 123.876 16.2156 124.257 16.1147C124.638 16.0139 124.985 15.8907 125.299 15.745V17.0558C124.997 17.2127 124.66 17.3303 124.291 17.4088C123.932 17.4984 123.495 17.5432 122.98 17.5432Z" fill="#9FA2AC"/>
<path d="M133.306 14.8879C133.306 15.7618 132.981 16.4228 132.332 16.871C131.682 17.3191 130.808 17.5432 129.71 17.5432C129.083 17.5432 128.539 17.4928 128.08 17.3919C127.632 17.2911 127.234 17.1511 126.887 16.9718V15.6274C127.245 15.8066 127.677 15.9747 128.181 16.1315C128.696 16.2772 129.217 16.35 129.744 16.35C130.494 16.35 131.038 16.2324 131.374 15.9971C131.71 15.7506 131.878 15.4257 131.878 15.0224C131.878 14.7983 131.816 14.5966 131.693 14.4174C131.57 14.2381 131.346 14.0588 131.021 13.8796C130.707 13.7003 130.253 13.4987 129.66 13.2746C129.077 13.0505 128.578 12.8264 128.164 12.6024C127.749 12.3783 127.43 12.1094 127.206 11.7957C126.982 11.482 126.87 11.0787 126.87 10.5857C126.87 9.82385 127.178 9.23565 127.794 8.82112C128.422 8.40658 129.239 8.19931 130.248 8.19931C130.797 8.19931 131.307 8.25533 131.777 8.36737C132.259 8.4794 132.707 8.62505 133.122 8.80431L132.617 9.9807C132.236 9.82385 131.839 9.6894 131.424 9.57737C131.01 9.46533 130.584 9.40931 130.147 9.40931C129.542 9.40931 129.077 9.51014 128.752 9.71181C128.438 9.90227 128.282 10.1656 128.282 10.5017C128.282 10.7594 128.354 10.9722 128.5 11.1403C128.646 11.3083 128.887 11.4764 129.223 11.6444C129.57 11.8125 130.029 12.003 130.601 12.2158C131.172 12.4287 131.659 12.6472 132.063 12.8713C132.466 13.0953 132.774 13.3698 132.987 13.6947C133.2 14.0084 133.306 14.4062 133.306 14.8879Z" fill="#9FA2AC"/>
<path d="M26.2973 6.14127C25.2117 6.14127 24.382 6.54651 23.808 7.35698C23.2341 8.16745 22.9471 9.27718 22.9471 10.6862C22.9471 12.1076 23.2091 13.2111 23.7332 13.9966C24.2697 14.7697 25.1244 15.1562 26.2973 15.1562C26.8338 15.1562 27.3766 15.0939 27.9256 14.9692C28.4746 14.8445 29.0673 14.6699 29.7036 14.4455V16.8208C29.1172 17.0577 28.537 17.2323 27.963 17.3445C27.3891 17.4567 26.7465 17.5128 26.0352 17.5128C24.6502 17.5128 23.5148 17.2323 22.6289 16.6712C21.743 16.0976 21.0879 15.2996 20.6637 14.2772C20.2395 13.2423 20.0273 12.039 20.0273 10.6675C20.0273 9.32082 20.2707 8.13005 20.7573 7.09514C21.2439 6.06023 21.9489 5.24975 22.8722 4.66372C23.808 4.07768 24.9497 3.78467 26.2973 3.78467C26.9586 3.78467 27.6199 3.87195 28.2812 4.04651C28.955 4.20861 29.5976 4.43305 30.209 4.71983L29.2919 7.02032C28.7928 6.78342 28.2874 6.57768 27.7759 6.40312C27.2768 6.22855 26.7839 6.14127 26.2973 6.14127Z" fill="#1B1D23"/>
<path d="M41.6019 12.2011C41.6019 13.8969 41.1527 15.2061 40.2543 16.1288C39.3684 17.0515 38.1581 17.5128 36.6234 17.5128C35.6751 17.5128 34.8266 17.3071 34.078 16.8956C33.3418 16.4841 32.7616 15.8856 32.3373 15.1001C31.9131 14.3021 31.701 13.3358 31.701 12.2011C31.701 10.5054 32.1439 9.20236 33.0298 8.29214C33.9157 7.38192 35.1323 6.92681 36.6795 6.92681C37.6403 6.92681 38.4887 7.13254 39.2249 7.54401C39.9611 7.95548 40.5413 8.55399 40.9655 9.33952C41.3898 10.1251 41.6019 11.0789 41.6019 12.2011ZM34.5459 12.2011C34.5459 13.2111 34.7081 13.9779 35.0325 14.5016C35.3694 15.0128 35.9121 15.2684 36.6608 15.2684C37.397 15.2684 37.9273 15.0128 38.2517 14.5016C38.5886 13.9779 38.757 13.2111 38.757 12.2011C38.757 11.1911 38.5886 10.4368 38.2517 9.93803C37.9273 9.4268 37.3907 9.17119 36.6421 9.17119C35.9059 9.17119 35.3694 9.4268 35.0325 9.93803C34.7081 10.4368 34.5459 11.1911 34.5459 12.2011Z" fill="#1B1D23"/>
<path d="M49.615 6.92681C49.7523 6.92681 49.9145 6.93304 50.1017 6.94551C50.2888 6.95798 50.4386 6.97668 50.5509 7.00162L50.345 9.62007C50.2452 9.59513 50.1141 9.57643 49.9519 9.56396C49.7897 9.53902 49.6462 9.52655 49.5215 9.52655C49.0473 9.52655 48.5919 9.61384 48.1552 9.7884C47.7185 9.95049 47.3629 10.2186 47.0884 10.5926C46.8263 10.9667 46.6953 11.4779 46.6953 12.1263V17.3258H43.9066V7.11384H46.0215L46.4333 8.83454H46.5643C46.8638 8.31085 47.2755 7.86197 47.7996 7.4879C48.3236 7.11384 48.9288 6.92681 49.615 6.92681Z" fill="#1B1D23"/>
<path d="M56.2513 6.92681C57.6612 6.92681 58.778 7.33204 59.6015 8.14252C60.425 8.94052 60.8367 10.0814 60.8367 11.5652V12.9118H54.2486C54.2736 13.6974 54.5044 14.3146 54.9411 14.7635C55.3903 15.2123 56.008 15.4368 56.794 15.4368C57.4429 15.4368 58.0355 15.3744 58.5721 15.2497C59.1211 15.1126 59.6826 14.9068 60.2565 14.6325V16.7834C59.745 17.0328 59.2147 17.2136 58.6656 17.3258C58.1166 17.4505 57.4491 17.5128 56.663 17.5128C55.6399 17.5128 54.7353 17.3258 53.9492 16.9517C53.1631 16.5652 52.5455 15.9916 52.0963 15.231C51.6471 14.458 51.4225 13.4792 51.4225 12.2946C51.4225 11.1101 51.6221 10.1188 52.0214 9.32082C52.4332 8.52282 53.0009 7.92431 53.7246 7.52531C54.4483 7.12631 55.2905 6.92681 56.2513 6.92681ZM56.27 8.90935C55.721 8.90935 55.2718 9.08391 54.9224 9.43304C54.573 9.78216 54.3672 10.3246 54.3048 11.0602H58.2165C58.204 10.4492 58.0355 9.93802 57.7111 9.52655C57.3992 9.11508 56.9188 8.90935 56.27 8.90935Z" fill="#1B1D23"/>
<path d="M72.4749 7.11384V17.3258H70.3412L69.9669 16.0166H69.8172C69.4927 16.5403 69.0435 16.9206 68.4696 17.1575C67.9081 17.3944 67.3092 17.5128 66.6728 17.5128C65.5748 17.5128 64.6951 17.2198 64.0338 16.6338C63.3725 16.0353 63.0419 15.0814 63.0419 13.7722V7.11384H65.8306V13.0802C65.8306 13.8158 65.9616 14.3707 66.2236 14.7448C66.4857 15.1063 66.9037 15.2871 67.4776 15.2871C68.3261 15.2871 68.9063 15.0004 69.2182 14.4268C69.5302 13.8408 69.6861 13.0054 69.6861 11.9206V7.11384H72.4749Z" fill="#1B1D23"/>
<path d="M87.3959 6.92681C88.5563 6.92681 89.4297 7.22606 90.0162 7.82456C90.6151 8.4106 90.9146 9.35823 90.9146 10.6675V17.3258H88.1258V11.3595C88.1258 9.88815 87.6143 9.15249 86.5911 9.15249C85.8549 9.15249 85.3309 9.41434 85.019 9.93803C84.707 10.4617 84.5511 11.2161 84.5511 12.2011V17.3258H81.7623V11.3595C81.7623 9.88815 81.2508 9.15249 80.2276 9.15249C79.454 9.15249 78.9175 9.44551 78.618 10.0315C78.331 10.6051 78.1875 11.4343 78.1875 12.5191V17.3258H75.3988V7.11384H77.5325L77.9068 8.42307H78.0565C78.3685 7.89938 78.7927 7.51908 79.3292 7.28217C79.8782 7.04526 80.446 6.92681 81.0324 6.92681C81.7811 6.92681 82.4112 7.0515 82.9227 7.30087C83.4468 7.53778 83.8523 7.91184 84.1393 8.42307H84.3826C84.6945 7.89938 85.125 7.51908 85.674 7.28217C86.2355 7.04526 86.8095 6.92681 87.3959 6.92681Z" fill="#1B1D23"/>
<path d="M6.47917 8.2085C6.02592 8.2085 5.58285 8.3429 5.20599 8.59471C4.82912 8.84652 4.53539 9.20443 4.36194 9.62318C4.18849 10.0419 4.14311 10.5027 4.23153 10.9472C4.31996 11.3918 4.53822 11.8001 4.85871 12.1206C5.17921 12.4411 5.58755 12.6594 6.03208 12.7478C6.47662 12.8362 6.9374 12.7908 7.35615 12.6174C7.7749 12.4439 8.13281 12.1502 8.38462 11.7733C8.63643 11.3965 8.77083 10.9534 8.77083 10.5002C8.77083 9.89237 8.52939 9.30948 8.09962 8.87971C7.66985 8.44994 7.08695 8.2085 6.47917 8.2085Z" fill="#25D695"/>
<path d="M6.48198 1.3335C5.27796 1.33202 4.08552 1.56843 2.97314 2.02915C1.86076 2.48987 0.850371 3.16583 0 4.01819L3.24271 7.2609C3.88351 6.61944 4.70018 6.18246 5.58938 6.00524C6.47859 5.82802 7.40038 5.91851 8.23814 6.26528C9.07591 6.61204 9.792 7.1995 10.2958 7.95332C10.7997 8.70715 11.0686 9.59347 11.0686 10.5002C11.0686 11.4069 10.7997 12.2932 10.2958 13.047C9.792 13.8008 9.07591 14.3883 8.23814 14.7351C7.40038 15.0818 6.47859 15.1723 5.58938 14.9951C4.70018 14.8179 3.88351 14.3809 3.24271 13.7394L0 16.9821C1.06595 18.048 2.37832 18.8346 3.82086 19.2722C5.2634 19.7097 6.79159 19.7848 8.27006 19.4907C9.74854 19.1966 11.1317 18.5424 12.2969 17.5861C13.4622 16.6298 14.3736 15.4008 14.9505 14.0081C15.5274 12.6154 15.7519 11.102 15.6042 9.6018C15.4564 8.10161 14.941 6.66101 14.1036 5.4076C13.2661 4.15419 12.1324 3.12666 10.803 2.41601C9.47358 1.70537 7.98942 1.33356 6.48198 1.3335Z" fill="#25D695"/>
</svg>
