<svg width="255" height="23" viewBox="0 0 255 23" fill="none" xmlns="http://www.w3.org/2000/svg">
<path d="M228.332 11.2579C228.332 13.2858 227.777 14.8151 226.668 15.8458C225.57 16.8654 224.035 17.3751 222.063 17.3751H218.719V5.37598H222.416C223.615 5.37598 224.657 5.60005 225.542 6.0482C226.438 6.49635 227.127 7.15737 227.609 8.03125C228.091 8.90514 228.332 9.9807 228.332 11.2579ZM226.735 11.3083C226.735 9.70621 226.337 8.53542 225.542 7.79598C224.758 7.04533 223.643 6.67 222.198 6.67H220.231V16.0811H221.861C225.11 16.0811 226.735 14.4902 226.735 11.3083Z" fill="#868991"/>
<path d="M238.624 12.8544C238.624 14.3445 238.243 15.4985 237.482 16.3164C236.731 17.1343 235.711 17.5432 234.423 17.5432C233.628 17.5432 232.916 17.3639 232.289 17.0054C231.673 16.6357 231.185 16.1035 230.827 15.4089C230.468 14.7031 230.289 13.8516 230.289 12.8544C230.289 11.3644 230.659 10.216 231.398 9.40931C232.149 8.60264 233.174 8.19931 234.473 8.19931C235.28 8.19931 235.997 8.38417 236.625 8.75389C237.252 9.11241 237.739 9.63899 238.087 10.3336C238.445 11.017 238.624 11.8573 238.624 12.8544ZM231.818 12.8544C231.818 13.9188 232.025 14.7647 232.44 15.3921C232.866 16.0083 233.538 16.3164 234.457 16.3164C235.364 16.3164 236.031 16.0083 236.456 15.3921C236.882 14.7647 237.095 13.9188 237.095 12.8544C237.095 11.7901 236.882 10.9554 236.456 10.3504C236.031 9.74542 235.359 9.44292 234.44 9.44292C233.521 9.44292 232.854 9.74542 232.44 10.3504C232.025 10.9554 231.818 11.7901 231.818 12.8544Z" fill="#868991"/>
<path d="M244.581 17.5432C243.775 17.5432 243.063 17.3807 242.447 17.0558C241.831 16.7309 241.344 16.2268 240.985 15.5433C240.638 14.8599 240.464 13.986 240.464 12.9217C240.464 11.8125 240.643 10.9106 241.002 10.216C241.372 9.52135 241.876 9.01158 242.514 8.68667C243.153 8.36176 243.876 8.19931 244.682 8.19931C245.13 8.19931 245.567 8.24973 245.993 8.35056C246.43 8.44019 246.783 8.55223 247.052 8.68667L246.598 9.91348C246.329 9.81264 246.016 9.71741 245.657 9.62778C245.298 9.53815 244.962 9.49334 244.649 9.49334C242.878 9.49334 241.993 10.6305 241.993 12.9049C241.993 13.9916 242.206 14.8263 242.632 15.4089C243.069 15.9803 243.713 16.266 244.565 16.266C245.046 16.266 245.478 16.2156 245.859 16.1147C246.24 16.0139 246.587 15.8907 246.901 15.745V17.0558C246.598 17.2127 246.262 17.3303 245.892 17.4088C245.534 17.4984 245.097 17.5432 244.581 17.5432Z" fill="#868991"/>
<path d="M254.908 14.8879C254.908 15.7618 254.583 16.4228 253.933 16.871C253.283 17.3191 252.41 17.5432 251.312 17.5432C250.684 17.5432 250.141 17.4928 249.681 17.3919C249.233 17.2911 248.836 17.1511 248.488 16.9718V15.6274C248.847 15.8066 249.278 15.9747 249.782 16.1315C250.298 16.2772 250.819 16.35 251.345 16.35C252.096 16.35 252.639 16.2324 252.975 15.9971C253.311 15.7506 253.479 15.4257 253.479 15.0224C253.479 14.7983 253.418 14.5966 253.295 14.4174C253.171 14.2381 252.947 14.0588 252.622 13.8796C252.309 13.7003 251.855 13.4987 251.261 13.2746C250.679 13.0505 250.18 12.8264 249.765 12.6024C249.351 12.3783 249.032 12.1094 248.808 11.7957C248.583 11.482 248.471 11.0787 248.471 10.5857C248.471 9.82385 248.78 9.23565 249.396 8.82112C250.023 8.40658 250.841 8.19931 251.849 8.19931C252.398 8.19931 252.908 8.25533 253.379 8.36737C253.86 8.4794 254.309 8.62505 254.723 8.80431L254.219 9.9807C253.838 9.82385 253.44 9.6894 253.026 9.57737C252.611 9.46533 252.185 9.40931 251.748 9.40931C251.143 9.40931 250.679 9.51014 250.354 9.71181C250.04 9.90227 249.883 10.1656 249.883 10.5017C249.883 10.7594 249.956 10.9722 250.102 11.1403C250.247 11.3083 250.488 11.4764 250.824 11.6444C251.172 11.8125 251.631 12.003 252.202 12.2158C252.774 12.4287 253.261 12.6472 253.664 12.8713C254.068 13.0953 254.376 13.3698 254.589 13.6947C254.802 14.0084 254.908 14.4062 254.908 14.8879Z" fill="#868991"/>
<path d="M26.2973 6.14078C25.2117 6.14078 24.382 6.54602 23.808 7.35649C23.2341 8.16697 22.9471 9.27669 22.9471 10.6857C22.9471 12.1071 23.2091 13.2106 23.7332 13.9961C24.2697 14.7692 25.1244 15.1557 26.2973 15.1557C26.8338 15.1557 27.3766 15.0934 27.9256 14.9687C28.4746 14.844 29.0673 14.6694 29.7036 14.445V16.8203C29.1172 17.0572 28.537 17.2318 27.963 17.344C27.3891 17.4562 26.7465 17.5123 26.0352 17.5123C24.6502 17.5123 23.5148 17.2318 22.6289 16.6707C21.743 16.0971 21.0879 15.2991 20.6637 14.2767C20.2395 13.2418 20.0273 12.0385 20.0273 10.667C20.0273 9.32033 20.2707 8.12956 20.7573 7.09465C21.2439 6.05974 21.9489 5.24926 22.8722 4.66323C23.808 4.0772 24.9497 3.78418 26.2973 3.78418C26.9586 3.78418 27.6199 3.87146 28.2812 4.04602C28.955 4.20812 29.5976 4.43256 30.209 4.71934L29.2919 7.01984C28.7928 6.78293 28.2874 6.57719 27.7759 6.40263C27.2768 6.22807 26.7839 6.14078 26.2973 6.14078Z" fill="#1B1D23"/>
<path d="M41.6019 12.2006C41.6019 13.8964 41.1527 15.2056 40.2543 16.1283C39.3684 17.051 38.1581 17.5123 36.6234 17.5123C35.6751 17.5123 34.8266 17.3066 34.078 16.8951C33.3418 16.4837 32.7616 15.8852 32.3373 15.0996C31.9131 14.3016 31.701 13.3353 31.701 12.2006C31.701 10.5049 32.1439 9.20188 33.0298 8.29165C33.9157 7.38143 35.1323 6.92632 36.6795 6.92632C37.6403 6.92632 38.4887 7.13205 39.2249 7.54353C39.9611 7.955 40.5413 8.5535 40.9655 9.33903C41.3898 10.1246 41.6019 11.0784 41.6019 12.2006ZM34.5459 12.2006C34.5459 13.2106 34.7081 13.9774 35.0325 14.5011C35.3694 15.0123 35.9121 15.268 36.6608 15.268C37.397 15.268 37.9273 15.0123 38.2517 14.5011C38.5886 13.9774 38.757 13.2106 38.757 12.2006C38.757 11.1907 38.5886 10.4363 38.2517 9.93754C37.9273 9.42632 37.3907 9.17071 36.6421 9.17071C35.9059 9.17071 35.3694 9.42632 35.0325 9.93754C34.7081 10.4363 34.5459 11.1907 34.5459 12.2006Z" fill="#1B1D23"/>
<path d="M49.615 6.92632C49.7523 6.92632 49.9145 6.93255 50.1017 6.94502C50.2888 6.95749 50.4386 6.97619 50.5509 7.00113L50.345 9.61958C50.2452 9.59464 50.1141 9.57594 49.9519 9.56347C49.7897 9.53854 49.6462 9.52607 49.5215 9.52607C49.0473 9.52607 48.5919 9.61335 48.1552 9.78791C47.7185 9.95001 47.3629 10.2181 47.0884 10.5921C46.8263 10.9662 46.6953 11.4774 46.6953 12.1258V17.3253H43.9066V7.11335H46.0215L46.4333 8.83405H46.5643C46.8638 8.31036 47.2755 7.86148 47.7996 7.48742C48.3236 7.11335 48.9288 6.92632 49.615 6.92632Z" fill="#1B1D23"/>
<path d="M56.2513 6.92632C57.6612 6.92632 58.778 7.33155 59.6015 8.14203C60.425 8.94003 60.8367 10.0809 60.8367 11.5647V12.9113H54.2486C54.2736 13.6969 54.5044 14.3141 54.9411 14.763C55.3903 15.2118 56.008 15.4363 56.794 15.4363C57.4429 15.4363 58.0355 15.3739 58.5721 15.2492C59.1211 15.1121 59.6826 14.9064 60.2565 14.632V16.7829C59.745 17.0323 59.2147 17.2131 58.6656 17.3253C58.1166 17.45 57.4491 17.5123 56.663 17.5123C55.6399 17.5123 54.7353 17.3253 53.9492 16.9512C53.1631 16.5647 52.5455 15.9911 52.0963 15.2305C51.6471 14.4575 51.4225 13.4787 51.4225 12.2941C51.4225 11.1096 51.6221 10.1183 52.0214 9.32033C52.4332 8.52233 53.0009 7.92382 53.7246 7.52482C54.4483 7.12582 55.2905 6.92632 56.2513 6.92632ZM56.27 8.90886C55.721 8.90886 55.2718 9.08342 54.9224 9.43255C54.573 9.78168 54.3672 10.3241 54.3048 11.0597H58.2165C58.204 10.4488 58.0355 9.93754 57.7111 9.52607C57.3992 9.11459 56.9188 8.90886 56.27 8.90886Z" fill="#1B1D23"/>
<path d="M72.4749 7.11335V17.3253H70.3412L69.9669 16.0161H69.8172C69.4927 16.5398 69.0435 16.9201 68.4696 17.157C67.9081 17.3939 67.3092 17.5123 66.6728 17.5123C65.5748 17.5123 64.6951 17.2193 64.0338 16.6333C63.3725 16.0348 63.0419 15.0809 63.0419 13.7717V7.11335H65.8306V13.0797C65.8306 13.8153 65.9616 14.3702 66.2236 14.7443C66.4857 15.1059 66.9037 15.2867 67.4776 15.2867C68.3261 15.2867 68.9063 14.9999 69.2182 14.4263C69.5302 13.8403 69.6861 13.0049 69.6861 11.9201V7.11335H72.4749Z" fill="#1B1D23"/>
<path d="M87.3959 6.92632C88.5563 6.92632 89.4297 7.22557 90.0162 7.82407C90.6151 8.41011 90.9146 9.35774 90.9146 10.667V17.3253H88.1258V11.359C88.1258 9.88766 87.6143 9.152 86.5911 9.152C85.8549 9.152 85.3309 9.41385 85.019 9.93754C84.707 10.4612 84.5511 11.2156 84.5511 12.2006V17.3253H81.7623V11.359C81.7623 9.88766 81.2508 9.152 80.2276 9.152C79.454 9.152 78.9175 9.44502 78.618 10.0311C78.331 10.6046 78.1875 11.4338 78.1875 12.5186V17.3253H75.3988V7.11335H77.5325L77.9068 8.42258H78.0565C78.3685 7.89889 78.7927 7.51859 79.3292 7.28168C79.8782 7.04477 80.446 6.92632 81.0324 6.92632C81.7811 6.92632 82.4112 7.05101 82.9227 7.30038C83.4468 7.53729 83.8523 7.91136 84.1393 8.42258H84.3826C84.6945 7.89889 85.125 7.51859 85.674 7.28168C86.2355 7.04477 86.8095 6.92632 87.3959 6.92632Z" fill="#1B1D23"/>
<path fill-rule="evenodd" clip-rule="evenodd" d="M2.97314 2.02915C4.08552 1.56843 5.27796 1.33202 6.48198 1.3335C7.98942 1.33356 9.47358 1.70537 10.803 2.41601C12.1324 3.12666 13.2661 4.15419 14.1036 5.4076C14.941 6.66101 15.4564 8.10161 15.6042 9.6018C15.7519 11.102 15.5274 12.6154 14.9505 14.0081C14.3736 15.4008 13.4622 16.6298 12.2969 17.5861C11.1317 18.5424 9.74854 19.1966 8.27006 19.4907C6.79159 19.7848 5.2634 19.7097 3.82086 19.2722C2.37832 18.8346 1.06595 18.048 0 16.9821L3.24271 13.7394C3.88351 14.3809 4.70018 14.8179 5.58938 14.9951C6.47859 15.1723 7.40038 15.0818 8.23814 14.7351C9.07591 14.3883 9.792 13.8008 10.2958 13.047C10.7997 12.2932 11.0686 11.4069 11.0686 10.5002C11.0686 9.59347 10.7997 8.70715 10.2958 7.95332C9.792 7.1995 9.07591 6.61204 8.23814 6.26528C7.40038 5.91851 6.47859 5.82802 5.58938 6.00524C4.70018 6.18246 3.88351 6.61944 3.24271 7.2609L0 4.01819C0.850371 3.16583 1.86076 2.48987 2.97314 2.02915ZM5.20599 8.59471C5.58285 8.3429 6.02592 8.2085 6.47917 8.2085C7.08695 8.2085 7.66985 8.44994 8.09962 8.87971C8.52939 9.30948 8.77083 9.89237 8.77083 10.5002C8.77083 10.9534 8.63643 11.3965 8.38462 11.7733C8.13281 12.1502 7.7749 12.4439 7.35615 12.6174C6.9374 12.7908 6.47662 12.8362 6.03208 12.7478C5.58755 12.6594 5.17921 12.4411 4.85871 12.1206C4.53822 11.8001 4.31996 11.3918 4.23153 10.9472C4.14311 10.5027 4.18849 10.0419 4.36194 9.62318C4.53539 9.20443 4.82912 8.84652 5.20599 8.59471Z" fill="#25D695"/>
<path fill-rule="evenodd" clip-rule="evenodd" d="M183.05 16.1694C183.761 17.0607 184.761 17.5063 186.049 17.5063C187.416 17.5063 188.446 17.0035 189.139 15.9978H189.211L189.455 17.3257H190.765V3.27002H189.139V7.22656C189.139 7.35303 189.154 7.59994 189.184 7.96729C189.214 8.32861 189.238 8.5695 189.256 8.68994H189.139C188.422 7.71436 187.398 7.22656 186.067 7.22656C184.773 7.22656 183.767 7.68123 183.05 8.59058C182.34 9.49992 181.984 10.7646 181.984 12.3845C181.984 14.0165 182.34 15.2782 183.05 16.1694ZM188.47 15.3564C188.019 15.8924 187.299 16.1604 186.311 16.1604C185.456 16.1604 184.8 15.8442 184.342 15.2119C183.89 14.5796 183.665 13.6492 183.665 12.4207C183.665 11.1861 183.893 10.2376 184.351 9.5752C184.809 8.90674 185.456 8.57251 186.293 8.57251C187.281 8.57251 188.004 8.86759 188.461 9.45776C188.925 10.0419 189.157 11.0235 189.157 12.4026V12.7007C189.157 13.9292 188.928 14.8145 188.47 15.3564ZM197.44 16.1785C198.44 16.1785 199.166 15.9105 199.617 15.3745C200.075 14.8325 200.304 13.9653 200.304 12.7729V12.3845C200.304 11.0597 200.075 10.0961 199.617 9.4939C199.16 8.89168 198.422 8.59058 197.404 8.59058C196.573 8.59058 195.929 8.92179 195.471 9.58423C195.019 10.2406 194.793 11.1801 194.793 12.4026C194.793 13.6311 195.013 14.5675 195.453 15.2119C195.899 15.8563 196.561 16.1785 197.44 16.1785ZM200.286 17.2354L200.34 16.0159H200.268C199.599 17.0095 198.575 17.5063 197.196 17.5063C195.914 17.5063 194.911 17.0607 194.188 16.1694C193.472 15.2721 193.113 14.0105 193.113 12.3845C193.113 10.7887 193.475 9.53003 194.197 8.60864C194.926 7.68726 195.92 7.22656 197.178 7.22656C198.521 7.22656 199.557 7.7264 200.286 8.72607H200.385L200.602 7.40723H201.894V17.4883C201.894 18.9095 201.532 19.9784 200.81 20.6951C200.093 21.4117 198.976 21.77 197.458 21.77C196.013 21.77 194.824 21.5592 193.89 21.1377V19.6382C194.854 20.1561 196.073 20.415 197.549 20.415C198.392 20.415 199.057 20.1681 199.545 19.6743C200.039 19.1805 200.286 18.497 200.286 17.6238V17.2354ZM209.016 17.5063C207.528 17.5063 206.36 17.0577 205.511 16.1604C204.668 15.2571 204.246 14.0165 204.246 12.4387C204.246 10.8489 204.641 9.58423 205.429 8.64478C206.218 7.6993 207.284 7.22656 208.627 7.22656C209.874 7.22656 210.867 7.63005 211.608 8.43701C212.349 9.23796 212.719 10.325 212.719 11.698V12.6826H205.926C205.956 13.8088 206.242 14.6639 206.784 15.248C207.326 15.8322 208.094 16.1243 209.088 16.1243C209.618 16.1243 210.121 16.0791 210.596 15.9888C211.072 15.8924 211.629 15.7087 212.268 15.4377V16.865C211.72 17.0999 211.205 17.2655 210.723 17.3618C210.241 17.4582 209.672 17.5063 209.016 17.5063ZM208.609 8.55444C207.832 8.55444 207.218 8.80436 206.766 9.3042C206.315 9.80404 206.047 10.4996 205.962 11.3909H211.012C211 10.4635 210.786 9.75887 210.371 9.2771C209.955 8.79533 209.368 8.55444 208.609 8.55444ZM179.639 17.3259H178.013V7.40747H179.639V17.3259ZM177.887 4.72461C177.887 4.36328 177.977 4.10132 178.158 3.93872C178.344 3.77612 178.573 3.69482 178.844 3.69482C179.097 3.69482 179.317 3.77612 179.504 3.93872C179.696 4.10132 179.793 4.36328 179.793 4.72461C179.793 5.07992 179.696 5.34188 179.504 5.5105C179.317 5.67912 179.097 5.76343 178.844 5.76343C178.573 5.76343 178.344 5.67912 178.158 5.5105C177.977 5.34188 177.887 5.07992 177.887 4.72461ZM176.411 7.33496C176.074 7.2627 175.686 7.22656 175.246 7.22656C174.638 7.22656 174.075 7.39518 173.557 7.73242C173.039 8.06966 172.59 8.56649 172.211 9.2229H172.139L171.958 7.40723H170.621V17.3257H172.247V12.0322C172.247 11.4119 172.374 10.8489 172.626 10.343C172.879 9.83114 173.229 9.43066 173.674 9.1416C174.126 8.85254 174.614 8.70801 175.138 8.70801C175.487 8.70801 175.845 8.75016 176.213 8.83447L176.411 7.33496ZM159.066 4.11914H162.833C164.604 4.11914 165.88 4.38411 166.663 4.91406C167.452 5.43799 167.847 6.26302 167.847 7.38916C167.847 8.17204 167.633 8.81942 167.205 9.3313C166.778 9.83716 166.154 10.1654 165.335 10.3159V10.4062C166.353 10.5809 167.1 10.9332 167.576 11.4631C168.057 11.9931 168.298 12.6947 168.298 13.5679C168.298 14.7482 167.895 15.6696 167.088 16.332C166.281 16.9945 165.155 17.3257 163.709 17.3257H159.066V4.11914ZM160.729 9.73779H163.167C164.203 9.73779 164.956 9.57218 165.426 9.24097C165.896 8.90975 166.13 8.35571 166.13 7.57886C166.13 6.8562 165.871 6.33529 165.354 6.01611C164.842 5.69694 164.029 5.53735 162.915 5.53735H160.729V9.73779ZM160.729 11.1289V15.9165H163.393C164.453 15.9165 165.239 15.7118 165.751 15.3022C166.263 14.8927 166.519 14.2725 166.519 13.4414C166.519 12.6525 166.248 12.0714 165.706 11.698C165.164 11.3186 164.351 11.1289 163.267 11.1289H160.729ZM144.164 4.11914V17.3257H152.321V15.0132H146.964V4.11914H144.164ZM135.597 10.334H136.519C137.38 10.334 138.024 10.1654 138.452 9.82812C138.879 9.48486 139.093 8.98804 139.093 8.33765C139.093 7.68123 138.912 7.19645 138.551 6.8833C138.196 6.57015 137.636 6.41357 136.871 6.41357H135.597V10.334ZM141.92 8.23828C141.92 9.65951 141.475 10.7465 140.583 11.4993C139.698 12.252 138.437 12.6284 136.799 12.6284H135.597V17.3257H132.797V4.11914H137.015C138.617 4.11914 139.834 4.46541 140.665 5.15796C141.502 5.84448 141.92 6.87126 141.92 8.23828ZM124.536 9.98169H123.632V6.41357H124.481C125.385 6.41357 126.05 6.54606 126.478 6.81104C126.911 7.07601 127.128 7.52165 127.128 8.14795C127.128 8.78027 126.917 9.24398 126.496 9.53906C126.074 9.83415 125.421 9.98169 124.536 9.98169ZM123.632 17.3257V12.2581H125.123L128.275 17.3257H131.383L127.499 11.5715C128.281 11.2283 128.887 10.7555 129.314 10.1533C129.742 9.54508 129.956 8.85254 129.956 8.07568C129.956 6.74479 129.525 5.75415 128.664 5.10376C127.803 4.44735 126.475 4.11914 124.68 4.11914H120.832V17.3257H123.632ZM119.421 17.3257H116.224L113.152 12.3303L110.081 17.3257H107.082L111.463 10.5146L107.362 4.11914H110.451L113.297 8.87061L116.088 4.11914H119.105L114.959 10.6682L119.421 17.3257ZM96.957 10.6953V12.9536H101.808V10.6953H96.957Z" fill="#1B1D23"/>
</svg>
