<svg width="32" height="32" viewBox="0 0 32 32" fill="none" xmlns="http://www.w3.org/2000/svg">
<g clip-path="url(#clip0_9677_9706)">
<path d="M19.8327 0C19.7374 0 19.6601 0.0772528 19.6601 0.172549C19.6601 2.19922 18.0173 3.84157 15.9911 3.84157C13.9644 3.84157 12.3221 2.19869 12.3221 0.172549C12.3221 0.0772528 12.2448 0 12.1495 0L3 0C1.34315 0 0 1.34315 0 3V29C0 30.6569 1.34315 32 3 32H29C30.6569 32 32 30.6569 32 29V3C32 1.34315 30.6569 0 29 0H19.8327Z" fill="#654FF0"/>
<path d="M7.43359 17.2451H9.55438L11.0022 24.956H11.0284L12.7685 17.2451H14.7523L16.3241 25.0506H16.3549L18.0051 17.2451H20.0851L17.3824 28.5753H15.2778L13.7191 20.8645H13.6783L12.0098 28.5753H9.86601L7.43359 17.2451ZM22.4762 17.2451H25.8195L29.1397 28.5753H26.952L26.2299 26.054H22.4213L21.8639 28.5753H19.7332L22.4762 17.2451ZM23.7489 20.0378L22.8239 24.1947H25.7029L24.6409 20.0378H23.7489Z" fill="white"/>
</g>
<defs>
<clipPath id="clip0_9677_9706">
<rect width="32" height="32" fill="white"/>
</clipPath>
</defs>
</svg>
